<svg width="96" height="96" xmlns="http://www.w3.org/2000/svg" xmlns:xlink="http://www.w3.org/1999/xlink" xml:space="preserve" overflow="hidden"><g transform="translate(-430 -502)"><path d="M497.775 549.83C502.724 547.591 510.513 550.689 515.417 550.101 520.321 549.513 521.512 548.32 522.635 546.867 523.758 545.414 522.105 541.869 520.589 542.412 519.073 542.954 516.086 543.237 514.854 541.354 513.622 539.472 519.519 537.798 521.481 536.531 523.443 535.265 522.039 533.315 521.357 532.042 520.675 530.77 516.71 527.078 516.13 530.38 515.551 533.682 513.66 535.884 511.85 535.808 510.04 535.732 511.717 531.125 513.099 529.566 514.48 528.006 511.538 526.264 509.359 525.349 507.18 524.435 501.283 524.003 503.914 526.942 506.544 529.883 507.676 534.072 506.79 535.265 505.903 536.458 503.245 532.958 502.665 531.466 502.086 529.973 499.812 530.199 498.653 531.013 497.493 531.827 496.022 533.003 497.939 534.36 500.183 536.258 501.513 539.021 501.595 541.959 501.551 544.764 500.565 544.621 496.482 546.054 493.999 547.048 491.62 548.283 489.378 549.742 488.898 550.053 488.257 549.915 487.946 549.435 487.771 549.164 487.732 548.826 487.841 548.523 487.932 548.265 488.008 548.049 488.059 547.906 489.582 543.928 490.793 539.837 491.681 535.671 494.676 528.31 498.96 513.771 493.345 511.862 489.297 510.485 491.178 516.992 490.217 518.281 489.256 519.57 488.721 516.763 487.694 514.165 486.668 511.567 485.708 511.129 484.057 511.037 482.406 510.946 481.27 510.815 480.135 513.432 479 516.05 489.269 523.902 487.486 525.35 485.702 526.798 481.838 523.588 479.206 520.343 476.575 517.097 471.93 513.956 469.608 520.343 467.286 526.729 473.375 524.949 476.213 525.311 478.29 525.451 479.86 527.248 479.72 529.325 479.706 529.544 479.672 529.762 479.619 529.975 479.155 531.86 477.047 530.394 474.556 529.347 472.064 528.3 470.021 530.498 471.466 533.221 472.793 535.721 484.397 534.671 485.478 541.215 485.608 542.133 485.511 543.069 485.196 543.941 484.699 545.411 484.187 546.862 483.688 548.272 481.921 553.265 481.354 554.317 480.468 558.457 480.464 558.476 480.445 558.59 480.417 558.768 480.245 559.801 479.269 560.5 478.236 560.329 477.915 560.276 477.613 560.141 477.359 559.937 475.935 558.835 474.427 557.846 472.849 556.979 469.563 554.63 468.653 551.593 467.634 547.968 466.605 544.31 467.925 537.904 467.872 535.723 467.819 533.541 465.041 533.255 462.911 533.548 460.781 533.841 458.983 534.683 458.846 537.083 458.708 539.484 468.499 553.058 464.151 553.664 459.805 554.271 454.96 543.954 454.097 539.734 453.486 536.748 450.937 536.452 448.519 537.621 445.303 539.176 449.94 541.322 449.169 542.514 447.535 545.042 443.665 539.47 442.179 540.673 439.702 542.678 436.793 545.778 440.878 546.47 447.413 547.577 452.307 554.26 451.662 555.492 451.017 556.724 446.116 555.858 443.239 553.187 440.362 550.516 438.01 551.638 436.762 553.987 435.515 556.336 438.286 557.494 440.441 557.16 442.596 556.827 446.424 559.303 445.459 561.411 444.494 563.519 438.638 560.232 436.198 559.622 433.759 559.013 432.96 563.171 432.747 565.242 432.534 567.312 435.394 572.454 437.511 570.458 439.629 568.461 445.648 565.963 447.088 569.702 448.527 573.44 442.639 573.307 440.259 574.964 439.004 575.839 438.901 577.13 440.235 579.358 441.569 581.586 443.927 579.652 444.441 583.034 444.822 585.542 449.326 584.878 449.012 582.306 448.83 579.42 449.268 576.529 450.298 573.827 450.784 572.535 452.225 571.882 453.517 572.368 453.82 572.482 454.099 572.655 454.337 572.875 455.746 574.084 454.055 578.993 458.817 578.951 463.579 578.909 460.334 570.131 461.743 566.839 463.152 563.546 465.507 562.887 468.289 562.441 469.94 562.088 471.65 562.123 473.285 562.544 474.324 562.821 475.279 563.347 476.069 564.076 478.262 565.94 479.749 568.5 480.282 571.329 480.738 574.403 481.401 577.444 482.268 580.429 482.286 580.519 482.311 580.607 482.342 580.693 483.232 583.853 484.391 586.932 485.807 589.895 486.301 590.883 487.504 591.284 488.492 590.789 488.606 590.732 488.714 590.664 488.815 590.587 489.58 589.973 489.804 588.905 489.35 588.036 489.057 587.445 488.752 586.775 488.444 586.041 486.456 581.452 487.14 576.141 490.229 572.206L490.301 572.118C492.447 569.389 496.137 568.405 499.357 569.703 503.856 571.614 507.646 576.57 508.939 578.424 510.934 581.281 513.642 583.351 515.817 581.854 517.17 580.923 518.288 579.578 516.92 578.32 515.882 577.366 515.067 577.16 514.699 574.838 514.547 573.884 517.496 574.431 518.34 574.275 520.347 573.904 519.638 570.688 519.176 569.496 518.904 568.581 517.942 568.058 517.026 568.33 516.882 568.373 516.745 568.434 516.617 568.512 515.422 569.3 515.194 571.229 512.762 571.42 510.33 571.61 509.985 569.303 510.491 567.921 511.288 565.738 516.861 566.033 517.768 565.469 518.675 564.905 519.553 563.855 518.896 561.378 518.086 558.805 515.577 557.156 512.894 557.436 510.427 557.855 510.157 561.891 508.252 560.631 506.501 559.472 507.24 558.203 507.657 556.661 508.053 555.198 504.968 554.577 503.013 554.3 501.058 554.024 500.195 554.461 499.828 555.93 499.534 557.11 502.318 560.318 500.726 562.035L500.22 562.52C495.394 563.318 490.581 565.196 486.863 569.999 486.332 570.689 485.342 570.818 484.652 570.288 484.318 570.031 484.101 569.652 484.048 569.234 483.781 567.067 483.713 564.88 483.845 562.701 483.861 562.452 483.899 562.205 483.96 561.963 485.303 556.692 491.822 552.251 497.775 549.83Z"/></g></svg>