<svg width="96" height="96" xmlns="http://www.w3.org/2000/svg" xmlns:xlink="http://www.w3.org/1999/xlink" xml:space="preserve" overflow="hidden"><g transform="translate(-91 -422)"><path d="M161.88 466.88C168.75 465 174.69 460 174.69 456.69 174.69 452 162.75 448.25 162.75 448.25L162 448.08C161.75 442 152.75 439 147.52 445.54L145.52 446 145.52 446C125.11 449.57 106.41 465 103.7 485.47 103.294 488.587 105.015 491.593 107.91 492.82L113.59 495.22 112.81 496.22C111.938 497.347 112.145 498.967 113.272 499.839 113.481 500.001 113.713 500.129 113.96 500.22L113.96 500.22C118.467 501.406 123.109 502.004 127.77 502L142.77 502 137.77 498 142.77 494 130.81 494C136.057 489.951 137.028 482.415 132.979 477.169 130.718 474.239 127.231 472.516 123.53 472.5 122.482 472.479 121.438 472.613 120.43 472.9 119.629 473.093 118.823 472.601 118.63 471.8 118.437 470.999 118.929 470.193 119.73 470 121.007 469.686 122.315 469.518 123.63 469.5 131.914 469.5 138.63 476.216 138.63 484.5 138.614 486.283 138.275 488.048 137.63 489.71 141.076 487.091 144.13 483.993 146.7 480.51L146.7 484C146.7 484.511 146.831 485.014 147.08 485.46L152.08 494.46C152.618 495.426 153.644 496.018 154.75 496L168.75 496 165.75 493 168.75 490 156.52 490 152.75 483.22 152.75 474C154.595 470.397 157.936 467.791 161.88 466.88Z"/></g></svg>