<svg width="96" height="96" xmlns="http://www.w3.org/2000/svg" xmlns:xlink="http://www.w3.org/1999/xlink" xml:space="preserve" overflow="hidden"><g transform="translate(-383 -318)"><path d="M464.84 346 469.84 346C468.377 344.12 466.645 342.465 464.7 341.09 463.529 337.18 459.932 334.501 455.85 334.5 449.38 334.5 443.12 342.05 440.43 347.05 427.393 349.76 415.842 357.252 408.05 368.05L392.39 383.73C391.871 384.25 391.871 385.092 392.391 385.611 392.64 385.86 392.978 386 393.33 386L398.62 386 398.62 391.29C398.621 392.025 399.216 392.62 399.951 392.619 400.303 392.619 400.641 392.479 400.89 392.23L413.63 379.49C417.979 381.679 422.762 382.872 427.63 382.98L427.63 389.98C426.525 389.98 425.63 390.875 425.63 391.98 425.63 393.085 426.525 393.98 427.63 393.98L428.83 393.98 432.23 397.38C432.964 398.153 434.185 398.185 434.958 397.452 434.983 397.428 435.007 397.404 435.03 397.38 435.803 396.646 435.835 395.425 435.102 394.651 435.078 394.627 435.055 394.603 435.03 394.58L434.43 393.98 436.63 393.98C437.735 393.98 438.63 393.085 438.63 391.98 438.63 390.875 437.735 389.98 436.63 389.98L431.63 389.98 431.63 382.84C432.975 382.712 434.311 382.502 435.63 382.21L435.63 386C434.525 386 433.63 386.895 433.63 388L436.63 388C438.839 388.005 440.626 389.799 440.622 392.008 440.621 392.52 440.522 393.026 440.33 393.5 440.694 393.809 441.153 393.985 441.63 394 442.158 393.992 442.661 393.777 443.03 393.4 443.803 392.666 443.835 391.445 443.102 390.672 443.078 390.647 443.055 390.623 443.03 390.6L442.43 390 444.63 390C445.735 390 446.63 389.105 446.63 388 446.63 386.895 445.735 386 444.63 386L439.63 386 439.63 381.06C452.346 376.48 460.992 364.618 461.46 351.11 463.136 349.841 464.328 348.039 464.84 346Z"/></g></svg>