<svg width="96" height="96" xmlns="http://www.w3.org/2000/svg" xmlns:xlink="http://www.w3.org/1999/xlink" xml:space="preserve" overflow="hidden"><g transform="translate(-933 -312)"><path d="M1008.4 362.6C1008 362.2 1007.5 362 1007 362L1002.1 362 1001.7 358.1 1010.5 349.3C1015.4 347.5 1019 341.8 1019 335 1019 326.7 1013.6 320 1007 320L1007 342 995.5 330.5C995.2 331.9 995 333.4 995 335 995 342.2 999.1 348.2 1004.5 349.7L1000.2 354C999.1 352.4 997.4 351.2 995.4 350.8L989.1 349.4C990.2 348.7 991 347.5 991 346 991 343.8 989.2 342 987 342 984.8 342 983 343.8 983 346 983 346.8 983.2 347.5 983.6 348.1L983.4 348.1C983.1 348 982.9 348 982.6 348L981 348 979.4 348C979.1 348 978.8 348 978.5 348.1L978.3 348.1C978.7 347.5 978.9 346.7 978.9 346 978.9 343.8 977.1 342 974.9 342 972.7 342 970.9 343.8 970.9 346 970.9 347.4 971.6 348.7 972.8 349.4L966.5 350.8C964.5 351.2 962.8 352.4 961.7 354L957.4 349.7C962.9 348.2 967 342.2 967 335 967 333.4 966.8 331.9 966.5 330.5L955 342 955 320C948.4 320 943 326.7 943 335 943 341.8 946.6 347.5 951.5 349.4L960.3 358.2 959.9 362 955 362C954.5 362 954 362.2 953.6 362.6L947.6 368.6C946.8 369.4 946.8 370.6 947.6 371.4 948 371.8 948.5 372 949 372 949.5 372 950 371.8 950.4 371.4L955.8 366 959.4 366 958.8 371 957 371C956.5 371 956 371.2 955.6 371.6L949.6 377.6C948.8 378.4 948.8 379.6 949.6 380.4 950 380.8 950.5 381 951 381 951.5 381 952 380.8 952.4 380.4L957.8 375 958.6 375C958.8 376.7 959.7 378.2 961 379.2L955.6 384.6C955.2 385 955 385.5 955 386L955 394C955 395.1 955.9 396 957 396 958.1 396 959 395.1 959 394L959 386.8 965.1 380.7 970.2 381.9 967.5 384.6C967.2 385 967 385.5 967 386L967 398C967 399.1 967.9 400 969 400 970.1 400 971 399.1 971 398L971 386.8 974.8 383 978.5 383.9C978.8 384 979.1 384 979.4 384L981 384 982.5 384C982.8 384 983.1 384 983.4 383.9L987.1 383 990.9 386.8 990.9 398C990.9 399.1 991.8 400 992.9 400 994 400 994.9 399.1 994.9 398L994.9 386C994.9 385.5 994.7 385 994.3 384.6L991.6 381.9 996.7 380.7 1002.8 386.8 1002.8 394C1002.8 395.1 1003.7 396 1004.8 396 1005.9 396 1006.8 395.1 1006.8 394L1006.8 386C1006.8 385.5 1006.6 385 1006.2 384.6L1001 379.2C1002.3 378.2 1003.2 376.7 1003.4 375L1004.2 375 1009.6 380.4C1010 380.8 1010.5 381 1011 381 1011.5 381 1012 380.8 1012.4 380.4 1013.2 379.6 1013.2 378.4 1012.4 377.6L1006.4 371.6C1006 371.2 1005.5 371 1005 371L1003.1 371 1002.5 366 1006.1 366 1011.5 371.4C1012 371.8 1012.5 372 1013 372 1013.5 372 1014 371.8 1014.4 371.4 1015.2 370.6 1015.2 369.4 1014.4 368.6L1008.4 362.6Z"/></g></svg>