<svg width="96" height="96" xmlns="http://www.w3.org/2000/svg" xmlns:xlink="http://www.w3.org/1999/xlink" xml:space="preserve" overflow="hidden"><g transform="translate(-384 -471)"><path d="M417 551 415.57 551C402.553 551 392 540.447 392 527.43L392 527.43C392 511.579 403.387 498.019 419 495.28L452.2 489.49C460.707 487.783 468.987 493.296 470.693 501.803 470.905 502.855 471.007 503.927 471 505L471 514.88C471 516.238 470.46 517.54 469.5 518.5L469.5 518.5C468.54 519.46 467.238 520 465.88 520L440.5 520C439.672 520 439 520.672 439 521.5L439 521.5C439 522.328 439.672 523 440.5 523L463.5 523C464.881 523 466 524.119 466 525.5L466 525.5C466 526.881 464.881 528 463.5 528L412 528C410.702 528 409.439 528.421 408.4 529.2L408.4 529.2C406.889 530.333 406 532.112 406 534L406 534C406 538.971 410.029 543 415 543L416.55 543C418.047 542.99 419.413 542.145 420.09 540.81L422.61 536.29C424.086 533.642 426.879 532.001 429.91 532L429.91 532C430.352 532.003 430.708 532.363 430.705 532.805 430.705 532.87 430.697 532.936 430.68 533L427.47 542.45C427.162 543.427 426.531 544.27 425.68 544.84L425.68 544.84C425.061 545.256 424.897 546.095 425.314 546.714 425.411 546.858 425.535 546.983 425.68 547.08L425.68 547.08C426.533 547.646 427.173 548.48 427.5 549.45L430.35 558.01C430.632 558.777 430.239 559.628 429.471 559.91 429.32 559.965 429.161 559.996 429 560L429 560C426.562 560 424.316 558.68 423.13 556.55L421.5 553.61C420.593 551.98 418.866 550.978 417 551Z"/><path d="M436.47 489.87C436.491 489.944 436.447 490.022 436.372 490.042 436.326 490.055 436.276 490.043 436.24 490.01 435.46 489.34 433.49 488.09 429.57 488.09 427.66 488.09 426.85 485.53 427.96 484.02 429.19 482.35 431.7 482.75 433.21 483.92 434.72 485.09 436 488.48 436.47 489.87Z"/><path d="M439.05 489.67C439.05 489.742 439.107 489.8 439.179 489.801 439.224 489.801 439.266 489.778 439.29 489.74 440.306 488.439 441.734 487.522 443.34 487.14 444.64 486.74 444.65 484.84 443.58 484.05 442.51 483.26 440.79 483.97 440.01 485.05 439.23 486.13 439.1 488.56 439.05 489.67Z"/><path d="M437 485.34C437.021 485.415 437.098 485.458 437.172 485.438 437.22 485.425 437.257 485.388 437.27 485.34 437.616 484.033 438.256 482.823 439.14 481.8 439.81 480.97 438.97 479.71 437.93 479.67 436.89 479.63 436 480.84 436 481.91 436.14 483.101 436.478 484.26 437 485.34Z"/></g></svg>