<svg width="96" height="96" xmlns="http://www.w3.org/2000/svg" xmlns:xlink="http://www.w3.org/1999/xlink" xml:space="preserve" overflow="hidden"><g transform="translate(-91 -263)"><path d="M136.5 283C121 283 108.5 295.5 108.5 311 108.5 315.9 109.8 320.5 112 324.5 114.1 322.3 116.4 320.1 118.9 317.7 125.2 311.8 132.6 305.8 138.8 301.4 139.2 301.1 139.6 300.9 140.1 300.9 141.2 300.9 142.1 301.8 142.1 302.9 142.1 303.6 141.8 304.1 141.3 304.5L141.3 304.5C132.4 310.9 120.6 320.8 112.6 329.8 112.6 329.8 111.5 331 111 331.6L111 331.6C106.5 336.9 103.5 341.7 103.5 345.1L109.5 345.1C109.5 342.9 113 338.1 118.3 332.4 123.2 336.6 129.5 339.1 136.5 339.1 141.5 339.1 146.3 337.8 150.4 335.4L150.4 335.4C171.8 323.5 174.5 301.6 174.5 277 174.5 277 151.2 283.4 136.5 283Z"/></g></svg>