<svg width="96" height="96" xmlns="http://www.w3.org/2000/svg" xmlns:xlink="http://www.w3.org/1999/xlink" xml:space="preserve" overflow="hidden"><g transform="translate(-518 -332)"><path d="M601.839 346.184 592.812 348.363C589.779 349.095 587.289 351.251 586.131 354.148L582.8 362.487 576.269 361 575.729 355.468 578.329 351.195 575.344 351.487 573.159 349.687 571.359 351.872 568.374 352.164 571.748 355.853 572.428 362.82C572.511 363.677 573.134 364.384 573.973 364.576L580.033 365.96 579.492 366.501 572.192 369.773C564.265 373.327 557.819 379.524 553.956 387.305L552.926 382.794C552.734 381.955 552.028 381.333 551.171 381.249L544.204 380.569 540.514 377.2 540.223 380.186 538.038 381.986 539.838 384.171 539.547 387.157 543.819 384.557 549.352 385.097 551.252 393.397C549.892 396.587 547.126 398.963 543.768 399.826 539.013 400.988 534.847 400.335 532.123 397.612 525.5 390.993 532.17 376.053 541.8 365.353 542.303 364.796 542.282 363.943 541.752 363.411 541.477 363.137 541.102 362.986 540.714 362.993 540.33 362.999 539.966 363.163 539.706 363.445 527.445 376.678 519.352 394.312 528.917 403.876 535.158 410.117 546.617 409.364 557.447 402.932 557.984 402.609 558.541 402.319 559.114 402.065 559.477 401.907 559.88 401.869 560.266 401.957L567.974 403.717 568.514 409.249 565.914 413.521 568.9 413.23 571.085 415.03 572.885 412.845 575.871 412.554 572.5 408.86 571.82 401.893C571.736 401.036 571.114 400.33 570.275 400.138L565.764 399.108C573.543 395.243 579.738 388.797 583.291 380.871L586.563 373.571 587.104 373.03 588.488 379.09C588.68 379.929 589.386 380.551 590.243 380.635L597.211 381.315 600.9 384.69 601.191 381.705 603.376 379.905 601.576 377.721 601.868 374.735 597.595 377.335 592.063 376.795 590.573 370.269 598.912 366.933C601.81 365.776 603.968 363.285 604.7 360.252L606.879 351.225C607.42 348.982 606.04 346.725 603.797 346.184 603.153 346.029 602.482 346.029 601.839 346.184Z"/></g></svg>